<?xml version="1.0" standalone="no"?>
<!DOCTYPE svg PUBLIC "-//W3C//DTD SVG 20010904//EN"
 "http://www.w3.org/TR/2001/REC-SVG-20010904/DTD/svg10.dtd">
<svg version="1.0"
    xmlns="http://www.w3.org/2000/svg"
 width="500.000000pt" height="500.000000pt" viewBox="0 0 500.000000 500.000000"
 preserveAspectRatio="xMidYMid meet">
    <g transform="translate(0.000000,500.000000) scale(0.100000,-0.100000)"
fill="#000000" stroke="none">
        <path d="M2280 4369 c-140 -14 -328 -54 -469 -101 -224 -75 -589 -274 -577
-316 4 -12 -12 -30 -56 -62 -154 -114 -389 -377 -510 -572 -179 -288 -318
-696 -344 -1007 -5 -53 -12 -88 -22 -98 -9 -8 -18 -39 -20 -68 l-4 -53 -68 -4
c-102 -5 -140 -50 -140 -163 0 -55 -1 -56 -35 -71 l-35 -14 0 -200 0 -199 34
-6 34 -7 4 -83 c2 -65 8 -90 24 -112 35 -47 58 -53 209 -53 l141 0 17 -123
c20 -141 39 -212 70 -259 21 -30 28 -33 80 -36 31 -2 65 2 75 7 17 9 20 6 25
-30 7 -52 47 -96 102 -110 61 -17 190 -7 223 18 44 32 62 79 62 162 l0 75 28
-55 c30 -60 92 -113 150 -128 47 -13 373 -38 652 -51 276 -13 844 -13 1120 0
236 11 601 38 640 47 102 24 171 102 194 219 l14 69 1 -125 c1 -138 13 -176
63 -213 33 -25 162 -35 223 -18 55 14 95 58 102 110 5 36 8 39 25 30 10 -5 44
-9 75 -7 52 3 59 6 80 36 31 47 50 118 70 259 l17 123 141 0 c151 0 174 6 209
53 16 22 22 47 24 112 l4 83 34 7 34 6 0 198 0 197 -35 17 c-34 16 -35 19 -35
72 0 113 -38 158 -139 163 l-68 4 -6 56 c-4 35 -12 59 -21 64 -11 6 -16 23
-16 51 0 62 -26 225 -56 352 -78 326 -231 643 -443 915 -78 101 -261 285 -354
355 -47 36 -64 55 -61 67 12 42 -352 241 -578 316 -281 93 -608 130 -908 101z
m520 -135 c281 -40 576 -150 808 -303 70 -46 97 -59 107 -51 28 23 324 -255
452 -426 238 -319 410 -745 448 -1109 3 -33 8 -77 11 -97 5 -34 3 -38 -15 -38
-19 0 -21 -6 -21 -60 0 -57 -1 -60 -24 -60 -21 0 -25 6 -31 48 -12 87 -47 226
-70 277 -33 74 -53 88 -119 83 l-55 -3 -15 37 c-23 61 -63 78 -181 78 -170 0
-194 -30 -196 -237 l-1 -128 -13 66 c-7 37 -20 80 -29 97 -22 43 -98 107 -143
120 -21 6 -122 18 -223 26 -376 30 -677 39 -1165 33 -455 -6 -579 -11 -895
-38 -193 -16 -256 -48 -306 -154 l-24 -50 0 78 c0 93 -17 139 -62 167 -27 16
-50 20 -133 20 -118 0 -158 -17 -181 -78 l-15 -37 -55 3 c-47 3 -59 0 -80 -19
-38 -35 -79 -159 -104 -316 -11 -67 -14 -73 -36 -73 -23 0 -24 3 -24 60 0 54
-2 60 -20 60 -23 0 -23 0 6 205 55 384 246 812 496 1110 148 177 369 375 393
355 9 -8 38 6 106 50 408 266 909 374 1409 304z m-870 -2124 l0 -80 -90 0 -90
0 0 -455 0 -455 -80 0 -80 0 0 455 0 455 -90 0 -90 0 0 80 0 80 260 0 260 0 0
-80z m820 -80 l0 -161 31 17 c38 19 124 29 174 20 21 -4 48 -18 61 -31 l24
-24 0 -331 c0 -199 -4 -339 -10 -350 -5 -10 -30 -26 -55 -36 -52 -19 -136 -15
-187 10 -39 20 -38 20 -38 -4 0 -18 -7 -20 -80 -20 l-80 0 0 535 0 535 80 0
80 0 0 -160z m-600 -132 c0 -7 0 -137 0 -288 -1 -287 3 -338 27 -347 8 -3 32
2 54 12 l39 18 0 309 0 308 90 0 90 0 0 -400 0 -401 -87 3 c-82 3 -88 4 -91
25 l-3 23 -27 -20 c-69 -50 -189 -42 -226 15 -14 21 -16 75 -16 390 l0 365 75
0 c53 0 75 -4 75 -12z m1288 -4 c47 -19 88 -58 115 -109 19 -35 21 -57 22
-175 l0 -135 -152 -3 -153 -3 0 -70 c0 -104 23 -139 91 -139 29 0 79 37 79 60
0 6 26 10 65 10 63 0 65 -1 65 -25 0 -91 -113 -185 -222 -185 -53 0 -138 48
-173 98 l-30 44 -3 236 c-3 199 0 243 13 279 17 45 69 97 119 119 42 18 119
17 164 -2z"/>
        <path d="M2330 3344 l0 -216 -30 26 c-83 69 -229 34 -282 -67 -88 -170 93
-352 265 -264 44 23 47 23 47 6 0 -14 7 -19 30 -19 l30 0 0 375 0 375 -30 0
-30 0 0 -216z m-69 -237 c46 -30 72 -85 63 -132 -30 -161 -264 -141 -264 22 0
50 18 82 59 110 44 30 98 30 142 0z"/>
        <path d="M2860 3171 l0 -361 35 0 35 0 0 271 0 271 98 -128 c160 -210 195
-254 201 -253 3 0 65 77 136 170 72 94 138 180 147 192 17 21 17 9 18 -250 l0
-273 30 0 30 0 0 363 c-1 286 -3 359 -13 347 -7 -9 -85 -111 -175 -227 -89
-117 -166 -214 -170 -217 -5 -3 -86 96 -181 220 -95 123 -177 227 -182 230 -5
3 -9 -147 -9 -355z"/>
        <path d="M1070 3161 l0 -351 30 0 30 0 0 160 0 160 88 0 c126 1 182 29 217
113 31 74 16 144 -42 199 -47 45 -98 61 -215 66 l-108 5 0 -352z m206 278 c89
-23 133 -101 98 -174 -24 -52 -77 -74 -171 -75 l-73 0 0 130 0 130 51 0 c27 0
70 -5 95 -11z"/>
        <path d="M1630 3174 c-160 -69 -159 -291 2 -359 88 -36 189 -5 239 73 39 62
41 145 4 208 -46 78 -161 115 -245 78z m167 -87 c68 -68 49 -167 -40 -211 -51
-24 -100 -15 -143 28 -46 46 -54 97 -24 152 43 83 141 97 207 31z"/>
        <path d="M3730 3176 c0 -4 41 -88 91 -189 l92 -182 -62 -116 c-33 -64 -61
-120 -61 -123 0 -4 15 -6 33 -4 31 3 35 8 184 303 84 165 152 304 153 308 0 5
-14 7 -32 5 -30 -3 -35 -11 -107 -153 l-76 -150 -75 150 c-72 144 -77 150
-108 153 -17 2 -32 1 -32 -2z"/>
        <path d="M2795 1784 c-22 -7 -41 -14 -42 -14 -2 0 -3 -114 -3 -254 l0 -254 35
-12 c19 -6 45 -10 57 -8 l23 3 3 267 c2 247 1 268 -15 277 -12 6 -31 5 -58 -5z"/>
        <path d="M3321 1764 c-36 -15 -51 -47 -51 -110 l0 -44 85 0 85 0 0 54 c0 88
-50 129 -119 100z"/>
    </g>
</svg>
