<?xml version="1.0" encoding="UTF-8" standalone="no"?>
<svg
    xmlns:dc="http://purl.org/dc/elements/1.1/"
    xmlns:cc="http://creativecommons.org/ns#"
    xmlns:rdf="http://www.w3.org/1999/02/22-rdf-syntax-ns#"
    xmlns:svg="http://www.w3.org/2000/svg"
    xmlns="http://www.w3.org/2000/svg"
    xmlns:sodipodi="http://sodipodi.sourceforge.net/DTD/sodipodi-0.dtd"
    xmlns:inkscape="http://www.inkscape.org/namespaces/inkscape"
   width="250"
   height="50"
   viewBox="0 0 66.145833 13.229167"
   version="1.1"
   id="svg2939"
   inkscape:version="1.0.1 (1.0.1+r73)"
   sodipodi:docname="podmytube-text.svg">
    <defs
     id="defs2933" />
    <sodipodi:namedview
     id="base"
     pagecolor="#ffffff"
     bordercolor="#666666"
     borderopacity="1.0"
     inkscape:pageopacity="0.0"
     inkscape:pageshadow="2"
     inkscape:zoom="1.979899"
     inkscape:cx="192.24777"
     inkscape:cy="53.790585"
     inkscape:document-units="px"
     inkscape:current-layer="layer1"
     inkscape:document-rotation="0"
     showgrid="false"
     units="px"
     inkscape:window-width="1528"
     inkscape:window-height="1016"
     inkscape:window-x="100"
     inkscape:window-y="27"
     inkscape:window-maximized="0" />
    <metadata
     id="metadata2936">
        <rdf:RDF>
            <cc:Work
         rdf:about="">
                <dc:format>image/svg+xml</dc:format>
                <dc:type
           rdf:resource="http://purl.org/dc/dcmitype/StillImage" />
                <dc:title></dc:title>
            </cc:Work>
        </rdf:RDF>
    </metadata>
    <g
     inkscape:label="Layer 1"
     inkscape:groupmode="layer"
     id="layer1">
        <g
       aria-label="Podmytube"
       id="text55"
       style="font-style:normal;font-variant:normal;font-weight:normal;font-stretch:normal;font-size:10.5833px;line-height:1.25;font-family:'Lohit Gurmukhi';-inkscape-font-specification:'Lohit Gurmukhi, Normal';font-variant-ligatures:normal;font-variant-caps:normal;font-variant-numeric:normal;font-variant-east-asian:normal;fill:none;fill-opacity:1;stroke:#000000;stroke-width:0.264583;stroke-opacity:1"
       transform="translate(-35.860015,-74.660553)">
            <path
         d="m 40.770637,77.532101 v 2.899039 h 1.312577 q 0.728636,0 1.126543,-0.377237 0.397907,-0.377237 0.397907,-1.074867 0,-0.692462 -0.397907,-1.069698 -0.397907,-0.377237 -1.126543,-0.377237 z m -1.04386,-0.857826 h 2.356437 q 1.297075,0 1.958531,0.589109 0.666624,0.583942 0.666624,1.715652 0,1.142046 -0.666624,1.725988 -0.661456,0.583942 -1.958531,0.583942 h -1.312577 v 3.100576 h -1.04386 z"
         style="font-style:normal;font-variant:normal;font-weight:normal;font-stretch:normal;font-size:10.5833px;font-family:'Lohit Gurmukhi';-inkscape-font-specification:'Lohit Gurmukhi, Normal';font-variant-ligatures:normal;font-variant-caps:normal;font-variant-numeric:normal;font-variant-east-asian:normal;fill:none;stroke:#000000;stroke-width:0.264583;stroke-opacity:1"
         id="path2896" />
            <path
         d="m 47.943303,79.268423 q -0.764808,0 -1.209224,0.599445 -0.444416,0.594277 -0.444416,1.63297 0,1.038693 0.439248,1.638138 0.444416,0.594277 1.214392,0.594277 0.759641,0 1.204057,-0.599445 0.444416,-0.599444 0.444416,-1.63297 0,-1.028357 -0.444416,-1.627802 -0.444416,-0.604613 -1.204057,-0.604613 z m 0,-0.806149 q 1.240231,0 1.948196,0.806149 0.707964,0.80615 0.707964,2.232415 0,1.421098 -0.707964,2.232415 -0.707965,0.80615 -1.948196,0.80615 -1.245398,0 -1.953363,-0.80615 -0.702797,-0.811317 -0.702797,-2.232415 0,-1.426265 0.702797,-2.232415 0.707965,-0.806149 1.953363,-0.806149 z"
         style="font-style:normal;font-variant:normal;font-weight:normal;font-stretch:normal;font-size:10.5833px;font-family:'Lohit Gurmukhi';-inkscape-font-specification:'Lohit Gurmukhi, Normal';font-variant-ligatures:normal;font-variant-caps:normal;font-variant-numeric:normal;font-variant-east-asian:normal;fill:none;stroke:#000000;stroke-width:0.264583;stroke-opacity:1"
         id="path2898" />
            <path
         d="m 55.978963,79.480296 v -3.131582 h 0.950843 v 8.040828 H 55.978963 V 83.52138 q -0.299722,0.516763 -0.759641,0.769977 -0.454751,0.248046 -1.095537,0.248046 -1.049028,0 -1.710485,-0.837156 -0.656288,-0.837155 -0.656288,-2.201409 0,-1.364253 0.656288,-2.201409 0.661457,-0.837155 1.710485,-0.837155 0.640786,0 1.095537,0.253213 0.459919,0.248047 0.759641,0.764809 z m -3.240102,2.020542 q 0,1.049028 0.428913,1.648473 0.434081,0.594277 1.188554,0.594277 0.754474,0 1.188554,-0.594277 0.434081,-0.599445 0.434081,-1.648473 0,-1.049028 -0.434081,-1.643305 -0.43408,-0.599445 -1.188554,-0.599445 -0.754473,0 -1.188554,0.599445 -0.428913,0.594277 -0.428913,1.643305 z"
         style="font-style:normal;font-variant:normal;font-weight:normal;font-stretch:normal;font-size:10.5833px;font-family:'Lohit Gurmukhi';-inkscape-font-specification:'Lohit Gurmukhi, Normal';font-variant-ligatures:normal;font-variant-caps:normal;font-variant-numeric:normal;font-variant-east-asian:normal;fill:none;stroke:#000000;stroke-width:0.264583;stroke-opacity:1"
         id="path2900" />
            <path
         d="m 63.394506,79.712839 q 0.356566,-0.640785 0.852659,-0.945675 0.496092,-0.30489 1.167883,-0.30489 0.904335,0 1.395259,0.635618 0.490925,0.63045 0.490925,1.798334 v 3.493316 h -0.956011 v -3.46231 q 0,-0.831988 -0.294555,-1.235063 -0.294554,-0.403075 -0.899167,-0.403075 -0.73897,0 -1.167883,0.490925 -0.428913,0.490924 -0.428913,1.338415 v 3.271108 h -0.956011 v -3.46231 q 0,-0.837156 -0.294555,-1.235063 -0.294555,-0.403075 -0.909502,-0.403075 -0.728636,0 -1.157549,0.496092 -0.428913,0.490925 -0.428913,1.333248 v 3.271108 H 58.852162 V 78.6018 h 0.956011 v 0.899167 q 0.325561,-0.532266 0.780312,-0.78548 0.454751,-0.253213 1.080034,-0.253213 0.63045,0 1.069698,0.320393 0.444416,0.320392 0.656289,0.930172 z"
         style="font-style:normal;font-variant:normal;font-weight:normal;font-stretch:normal;font-size:10.5833px;font-family:'Lohit Gurmukhi';-inkscape-font-specification:'Lohit Gurmukhi, Normal';font-variant-ligatures:normal;font-variant-caps:normal;font-variant-numeric:normal;font-variant-east-asian:normal;fill:none;stroke:#000000;stroke-width:0.264583;stroke-opacity:1"
         id="path2902" />
            <path
         d="m 71.611032,84.926975 q -0.403074,1.033525 -0.785479,1.34875 -0.382404,0.315226 -1.02319,0.315226 h -0.759641 v -0.795815 h 0.558104 q 0.392739,0 0.60978,-0.186034 0.21704,-0.186035 0.480589,-0.878497 L 70.861727,84.296524 68.520792,78.6018 h 1.007687 l 1.808669,4.526841 1.80867,-4.526841 h 1.007687 z"
         style="font-style:normal;font-variant:normal;font-weight:normal;font-stretch:normal;font-size:10.5833px;font-family:'Lohit Gurmukhi';-inkscape-font-specification:'Lohit Gurmukhi, Normal';font-variant-ligatures:normal;font-variant-caps:normal;font-variant-numeric:normal;font-variant-east-asian:normal;fill:none;stroke:#000000;stroke-width:0.264583;stroke-opacity:1"
         id="path2904" />
            <path
         d="M 76.406591,76.958494 V 78.6018 h 1.958531 v 0.73897 h -1.958531 v 3.141917 q 0,0.707965 0.191202,0.909503 0.19637,0.201537 0.790647,0.201537 h 0.976682 v 0.795815 H 77.38844 q -1.100704,0 -1.519282,-0.408243 -0.418578,-0.41341 -0.418578,-1.498612 V 79.34077 H 74.75295 V 78.6018 h 0.69763 v -1.643306 z"
         style="font-style:normal;font-variant:normal;font-weight:normal;font-stretch:normal;font-size:10.5833px;font-family:'Lohit Gurmukhi';-inkscape-font-specification:'Lohit Gurmukhi, Normal';font-variant-ligatures:normal;font-variant-caps:normal;font-variant-numeric:normal;font-variant-east-asian:normal;fill:none;stroke:#000000;stroke-width:0.264583;stroke-opacity:1"
         id="path2906" />
            <path
         d="M 79.522668,82.105451 V 78.6018 h 0.950843 v 3.467477 q 0,0.821653 0.320393,1.235063 0.320393,0.408243 0.961179,0.408243 0.769976,0 1.214392,-0.490925 0.449583,-0.490925 0.449583,-1.338415 V 78.6018 h 0.950844 v 5.787742 H 83.419058 V 83.50071 q -0.346231,0.527098 -0.806149,0.785479 -0.454751,0.253214 -1.059364,0.253214 -0.997352,0 -1.514114,-0.620115 -0.516763,-0.620116 -0.516763,-1.813837 z m 2.392611,-3.643177 z"
         style="font-style:normal;font-variant:normal;font-weight:normal;font-stretch:normal;font-size:10.5833px;font-family:'Lohit Gurmukhi';-inkscape-font-specification:'Lohit Gurmukhi, Normal';font-variant-ligatures:normal;font-variant-caps:normal;font-variant-numeric:normal;font-variant-east-asian:normal;fill:none;stroke:#000000;stroke-width:0.264583;stroke-opacity:1"
         id="path2908" />
            <path
         d="m 90.493543,81.500838 q 0,-1.049028 -0.434081,-1.643305 -0.428913,-0.599445 -1.183386,-0.599445 -0.754474,0 -1.188554,0.599445 -0.428913,0.594277 -0.428913,1.643305 0,1.049028 0.428913,1.648473 0.43408,0.594277 1.188554,0.594277 0.754473,0 1.183386,-0.594277 0.434081,-0.599445 0.434081,-1.648473 z m -3.234934,-2.020542 q 0.299722,-0.516762 0.754473,-0.764809 0.459919,-0.253213 1.095537,-0.253213 1.054196,0 1.710485,0.837155 0.661456,0.837156 0.661456,2.201409 0,1.364254 -0.661456,2.201409 -0.656289,0.837156 -1.710485,0.837156 -0.635618,0 -1.095537,-0.248046 -0.454751,-0.253214 -0.754473,-0.769977 v 0.868162 h -0.956011 v -8.040828 h 0.956011 z"
         style="font-style:normal;font-variant:normal;font-weight:normal;font-stretch:normal;font-size:10.5833px;font-family:'Lohit Gurmukhi';-inkscape-font-specification:'Lohit Gurmukhi, Normal';font-variant-ligatures:normal;font-variant-caps:normal;font-variant-numeric:normal;font-variant-east-asian:normal;fill:none;stroke:#000000;stroke-width:0.264583;stroke-opacity:1"
         id="path2910" />
            <path
         d="m 98.007268,81.25796 v 0.465086 h -4.371812 q 0.06201,0.981849 0.58911,1.498612 0.532265,0.511595 1.477941,0.511595 0.547768,0 1.059363,-0.134358 0.516763,-0.134359 1.02319,-0.403075 v 0.899167 q -0.511595,0.21704 -1.049028,0.330728 -0.537433,0.113688 -1.090369,0.113688 -1.384924,0 -2.196241,-0.80615 -0.80615,-0.80615 -0.80615,-2.180738 0,-1.421098 0.764809,-2.253086 0.769976,-0.837155 2.072218,-0.837155 1.167884,0 1.844843,0.754473 0.682126,0.749306 0.682126,2.041213 z m -0.950843,-0.279052 q -0.01033,-0.780312 -0.439248,-1.245398 -0.423746,-0.465087 -1.126543,-0.465087 -0.795814,0 -1.276404,0.449584 -0.475421,0.449584 -0.547768,1.266069 z"
         style="font-style:normal;font-variant:normal;font-weight:normal;font-stretch:normal;font-size:10.5833px;font-family:'Lohit Gurmukhi';-inkscape-font-specification:'Lohit Gurmukhi, Normal';font-variant-ligatures:normal;font-variant-caps:normal;font-variant-numeric:normal;font-variant-east-asian:normal;fill:none;stroke:#000000;stroke-width:0.264583;stroke-opacity:1"
         id="path2912" />
        </g>
    </g>
</svg>
